<?xml version="1.0" encoding="UTF-8" ?>
<svg version="1.1" width="2" height="21" xmlns="http://www.w3.org/2000/svg" shape-rendering="crispEdges">
<rect x="0" y="0" width="1" height="1" fill="#887C6B" />
<rect x="1" y="0" width="1" height="1" fill="#887C6B" />
<rect x="0" y="1" width="1" height="1" fill="#887C6B" />
<rect x="1" y="1" width="1" height="1" fill="#887C6B" />
<rect x="0" y="2" width="1" height="1" fill="#887C6B" />
<rect x="1" y="2" width="1" height="1" fill="#887C6B" />
<rect x="0" y="3" width="1" height="1" fill="#887C6B" />
<rect x="1" y="3" width="1" height="1" fill="#887C6B" />
<rect x="0" y="4" width="1" height="1" fill="#887C6B" />
<rect x="1" y="4" width="1" height="1" fill="#887C6B" />
<rect x="0" y="5" width="1" height="1" fill="#887C6B" />
<rect x="1" y="5" width="1" height="1" fill="#887C6B" />
<rect x="0" y="6" width="1" height="1" fill="#887C6B" />
<rect x="1" y="6" width="1" height="1" fill="#887C6B" />
<rect x="0" y="7" width="1" height="1" fill="#887C6B" />
<rect x="1" y="7" width="1" height="1" fill="#887C6B" />
<rect x="0" y="8" width="1" height="1" fill="#887C6B" />
<rect x="1" y="8" width="1" height="1" fill="#887C6B" />
<rect x="0" y="9" width="1" height="1" fill="#887C6B" />
<rect x="1" y="9" width="1" height="1" fill="#887C6B" />
<rect x="0" y="10" width="1" height="1" fill="#887C6B" />
<rect x="1" y="10" width="1" height="1" fill="#887C6B" />
<rect x="0" y="11" width="1" height="1" fill="#887C6B" />
<rect x="1" y="11" width="1" height="1" fill="#887C6B" />
<rect x="0" y="12" width="1" height="1" fill="#887C6B" />
<rect x="1" y="12" width="1" height="1" fill="#887C6B" />
<rect x="0" y="13" width="1" height="1" fill="#887C6B" />
<rect x="1" y="13" width="1" height="1" fill="#887C6B" />
<rect x="0" y="14" width="1" height="1" fill="#887C6B" />
<rect x="1" y="14" width="1" height="1" fill="#887C6B" />
<rect x="0" y="15" width="1" height="1" fill="#887C6B" />
<rect x="1" y="15" width="1" height="1" fill="#887C6B" />
<rect x="0" y="16" width="1" height="1" fill="#887C6B" />
<rect x="1" y="16" width="1" height="1" fill="#887C6B" />
<rect x="0" y="17" width="1" height="1" fill="#887C6B" />
<rect x="1" y="17" width="1" height="1" fill="#887C6B" />
<rect x="0" y="18" width="1" height="1" fill="#887C6B" />
<rect x="1" y="18" width="1" height="1" fill="#887C6B" />
<rect x="0" y="19" width="1" height="1" fill="#887C6B" />
<rect x="1" y="19" width="1" height="1" fill="#887C6B" />
<rect x="0" y="20" width="1" height="1" fill="#887C6B" />
<rect x="1" y="20" width="1" height="1" fill="#887C6B" />
</svg>